<mxfile host="app.diagrams.net" agent="Mozilla/5.0 (Windows NT 10.0; Win64; x64) AppleWebKit/537.36 (KHTML, like Gecko) Chrome/135.0.0.0 Safari/537.36" version="26.2.13">
  <diagram name="Page-1" id="e7e014a7-5840-1c2e-5031-d8a46d1fe8dd">
    <mxGraphModel dx="1428" dy="743" grid="1" gridSize="10" guides="1" tooltips="1" connect="1" arrows="1" fold="1" page="1" pageScale="1" pageWidth="1169" pageHeight="826" background="none" math="0" shadow="0">
      <root>
        <mxCell id="0" />
        <mxCell id="1" parent="0" />
        <mxCell id="2" value="통합 어드민 관리자" style="swimlane;whiteSpace=wrap" parent="1" vertex="1">
          <mxGeometry x="44" y="80" width="220" height="630" as="geometry" />
        </mxCell>
        <mxCell id="96O3fiuV2CnEG_7vWFeL-43" value="복지점수신청 구분 생성&lt;div&gt;(공통 코드값 활용 등)&lt;/div&gt;" style="rounded=0;whiteSpace=wrap;html=1;" vertex="1" parent="2">
          <mxGeometry x="50" y="50" width="120" height="50" as="geometry" />
        </mxCell>
        <mxCell id="3" value="고객사 어드민 관리자" style="swimlane;whiteSpace=wrap" parent="1" vertex="1">
          <mxGeometry x="264" y="80" width="280" height="630" as="geometry" />
        </mxCell>
        <mxCell id="96O3fiuV2CnEG_7vWFeL-48" value="복지점수신청 구분별&amp;nbsp;&lt;div&gt;신청 입력 항목 설정&lt;/div&gt;" style="rounded=0;whiteSpace=wrap;html=1;" vertex="1" parent="3">
          <mxGeometry x="55" y="138" width="170" height="65" as="geometry" />
        </mxCell>
        <mxCell id="4" value="신청자" style="swimlane;whiteSpace=wrap" parent="1" vertex="1">
          <mxGeometry x="544" y="80" width="280" height="630" as="geometry" />
        </mxCell>
        <mxCell id="96O3fiuV2CnEG_7vWFeL-54" value="복지점수신청 구분 선택" style="rounded=0;whiteSpace=wrap;html=1;" vertex="1" parent="4">
          <mxGeometry x="55" y="44" width="170" height="46" as="geometry" />
        </mxCell>
        <mxCell id="96O3fiuV2CnEG_7vWFeL-55" value="선택 복지점수신청 구분&amp;nbsp;&lt;div&gt;신청서 작성&lt;/div&gt;" style="rounded=0;whiteSpace=wrap;html=1;" vertex="1" parent="4">
          <mxGeometry x="56" y="135" width="170" height="65" as="geometry" />
        </mxCell>
        <mxCell id="96O3fiuV2CnEG_7vWFeL-57" value="" style="endArrow=classic;html=1;rounded=0;exitX=0.5;exitY=1;exitDx=0;exitDy=0;entryX=0.5;entryY=0;entryDx=0;entryDy=0;" edge="1" parent="4" source="96O3fiuV2CnEG_7vWFeL-54" target="96O3fiuV2CnEG_7vWFeL-55">
          <mxGeometry width="50" height="50" relative="1" as="geometry">
            <mxPoint x="33" y="100" as="sourcePoint" />
            <mxPoint x="32" y="148" as="targetPoint" />
          </mxGeometry>
        </mxCell>
        <mxCell id="96O3fiuV2CnEG_7vWFeL-45" value="복지점수 관리자" style="swimlane;whiteSpace=wrap" vertex="1" parent="1">
          <mxGeometry x="824" y="80" width="280" height="630" as="geometry" />
        </mxCell>
        <mxCell id="96O3fiuV2CnEG_7vWFeL-46" value="복지점수신청&amp;nbsp;&lt;div&gt;신청항목 템플릿 설정&lt;/div&gt;" style="rounded=0;whiteSpace=wrap;html=1;" vertex="1" parent="1">
          <mxGeometry x="94" y="215" width="120" height="65" as="geometry" />
        </mxCell>
        <mxCell id="96O3fiuV2CnEG_7vWFeL-47" value="" style="endArrow=classic;html=1;rounded=0;exitX=0.5;exitY=1;exitDx=0;exitDy=0;entryX=0.5;entryY=0;entryDx=0;entryDy=0;" edge="1" parent="1" source="96O3fiuV2CnEG_7vWFeL-43" target="96O3fiuV2CnEG_7vWFeL-46">
          <mxGeometry width="50" height="50" relative="1" as="geometry">
            <mxPoint x="560" y="410" as="sourcePoint" />
            <mxPoint x="610" y="360" as="targetPoint" />
          </mxGeometry>
        </mxCell>
        <mxCell id="96O3fiuV2CnEG_7vWFeL-51" value="운영 복지점수신청 구분 설정" style="rounded=0;whiteSpace=wrap;html=1;" vertex="1" parent="1">
          <mxGeometry x="320" y="124" width="170" height="46" as="geometry" />
        </mxCell>
        <mxCell id="96O3fiuV2CnEG_7vWFeL-52" value="" style="curved=1;endArrow=classic;html=1;rounded=0;exitX=1;exitY=0.5;exitDx=0;exitDy=0;entryX=0;entryY=0.5;entryDx=0;entryDy=0;" edge="1" parent="1" source="96O3fiuV2CnEG_7vWFeL-46" target="96O3fiuV2CnEG_7vWFeL-51">
          <mxGeometry width="50" height="50" relative="1" as="geometry">
            <mxPoint x="560" y="360" as="sourcePoint" />
            <mxPoint x="610" y="310" as="targetPoint" />
            <Array as="points">
              <mxPoint x="250" y="190" />
              <mxPoint x="270" y="170" />
            </Array>
          </mxGeometry>
        </mxCell>
        <mxCell id="96O3fiuV2CnEG_7vWFeL-53" value="" style="endArrow=classic;html=1;rounded=0;exitX=0.5;exitY=1;exitDx=0;exitDy=0;" edge="1" parent="1" source="96O3fiuV2CnEG_7vWFeL-51" target="96O3fiuV2CnEG_7vWFeL-48">
          <mxGeometry width="50" height="50" relative="1" as="geometry">
            <mxPoint x="560" y="360" as="sourcePoint" />
            <mxPoint x="610" y="310" as="targetPoint" />
          </mxGeometry>
        </mxCell>
        <mxCell id="96O3fiuV2CnEG_7vWFeL-56" value="" style="curved=1;endArrow=classic;html=1;rounded=0;exitX=1;exitY=0.5;exitDx=0;exitDy=0;entryX=0;entryY=0.5;entryDx=0;entryDy=0;" edge="1" parent="1">
          <mxGeometry width="50" height="50" relative="1" as="geometry">
            <mxPoint x="492" y="248" as="sourcePoint" />
            <mxPoint x="598" y="147" as="targetPoint" />
            <Array as="points">
              <mxPoint x="528" y="190" />
              <mxPoint x="548" y="170" />
            </Array>
          </mxGeometry>
        </mxCell>
        <mxCell id="96O3fiuV2CnEG_7vWFeL-58" value="복지점수신청서 접수" style="rounded=0;whiteSpace=wrap;html=1;" vertex="1" parent="1">
          <mxGeometry x="879" y="121" width="170" height="46" as="geometry" />
        </mxCell>
        <mxCell id="96O3fiuV2CnEG_7vWFeL-59" value="" style="curved=1;endArrow=classic;html=1;rounded=0;exitX=1;exitY=0.5;exitDx=0;exitDy=0;entryX=0;entryY=0.5;entryDx=0;entryDy=0;" edge="1" parent="1">
          <mxGeometry width="50" height="50" relative="1" as="geometry">
            <mxPoint x="773" y="245" as="sourcePoint" />
            <mxPoint x="879" y="144" as="targetPoint" />
            <Array as="points">
              <mxPoint x="809" y="187" />
              <mxPoint x="829" y="167" />
            </Array>
          </mxGeometry>
        </mxCell>
      </root>
    </mxGraphModel>
  </diagram>
</mxfile>
